<svg width="145" height="117" viewBox="0 0 145 117" fill="none" xmlns="http://www.w3.org/2000/svg">
<path d="M139.91 22.9901C141.4 22.9901 142.89 22.9901 144.69 22.9901C144.69 54.2001 144.69 85.2801 144.69 116.69C96.63 116.69 48.61 116.69 0.25 116.69C0.25 85.6301 0.25 54.5701 0.25 22.9901C1.48 22.9901 2.73 22.9901 3.99 22.9901L3.85 22.8501C3.85 52.4501 3.85 82.0601 3.85 111.66C49.61 111.66 94.65 111.66 140.05 111.66C140.05 81.8201 140.05 52.3401 140.05 22.8501L139.91 22.9901Z" fill="black"/>
<path d="M3.9901 22.9901C3.9901 21.5301 3.9901 20.0701 3.9901 19.3201C6.2801 17.7601 8.1901 16.4601 10.0901 15.1601C9.8901 14.7501 9.70011 14.3501 9.50011 13.9401C10.9501 13.9401 12.3901 13.9401 13.8401 13.9401C13.9401 15.1901 14.0501 16.4301 14.1501 17.6801C31.2801 17.6801 47.9801 17.6801 64.7701 17.6801C64.8501 16.3001 64.9201 15.1501 64.9801 13.9901C66.3001 13.9901 67.6301 13.9901 69.3601 13.9901C69.2201 18.2301 72.1701 17.9401 75.1901 17.9401C94.7801 17.8801 114.37 17.9101 133.97 17.9101C135.77 17.9101 137.58 17.9101 139.92 17.9101C139.92 19.8301 139.92 21.4101 139.92 23.0001L140.06 22.8601C94.6601 22.8601 49.2601 22.8601 3.86011 22.8601L3.9901 22.9901Z" fill="black"/>
<path d="M56.0101 3.96005C44.9601 3.96005 33.9101 3.96005 22.8601 3.96005C22.9301 2.80005 22.9901 1.64005 23.0801 0.180054C33.8701 0.180054 44.6201 0.180054 55.7801 0.180054C55.8501 1.44005 55.9301 2.70005 56.0101 3.96005Z" fill="black"/>
<path d="M23 3.82007C23 5.29007 23 6.77007 23 8.81007C21.11 8.81007 19.54 8.81007 17.96 8.81007C17.96 7.35007 17.96 5.90007 17.96 4.14007C19.8 4.03007 21.4 3.92007 23 3.82007Z" fill="black"/>
<path d="M60.9101 8.81007C59.4501 8.81007 57.9801 8.81007 56.1901 8.81007C56.0701 7.03007 55.9701 5.42007 55.8701 3.82007C57.3301 3.82007 58.8001 3.82007 60.9101 3.82007C60.9101 5.68007 60.9101 7.25007 60.9101 8.81007Z" fill="black"/>
</svg>
