<svg width="110" height="135" viewBox="0 0 110 135" fill="none" xmlns="http://www.w3.org/2000/svg">
<path fill-rule="evenodd" clip-rule="evenodd" d="M73.742 14.6875H23.75C22.8867 14.6875 22.1875 15.3867 22.1875 16.25V103.75C22.1875 104.613 22.8867 105.312 23.75 105.312H86.25C87.1133 105.312 87.8125 104.613 87.8125 103.75V28.688L87.8086 28.6333L87.8008 28.5747L87.793 28.5239L87.7812 28.4614L87.7695 28.3911L87.75 28.3286L87.7383 28.2817L87.7305 28.2583L87.7031 28.1841C87.6914 28.1489 87.6758 28.1138 87.6602 28.0825C87.6289 28.0122 87.5898 27.9497 87.5469 27.8872L87.5039 27.8247L87.4492 27.7544L87.4062 27.6997L87.3672 27.6607L87.3555 27.645L74.8555 15.145L74.8086 15.106L74.7383 15.0435L74.6875 15.0044L74.6602 14.981L74.6133 14.9497C74.5508 14.9068 74.4844 14.8677 74.418 14.8364C74.3828 14.8208 74.3477 14.8052 74.3164 14.7935L74.2383 14.7661L74.1953 14.7505L74.125 14.7349L74.082 14.7232L74.0274 14.7154L73.9649 14.7075L73.8867 14.6997L73.8008 14.6919H73.7422L73.742 14.6875ZM72.1873 17.8125H25.3123V102.188H84.6873V30.3125H73.7493C72.886 30.3125 72.1868 29.6133 72.1868 28.75L72.1873 17.8125ZM75.3123 20.0234L82.4764 27.1875H75.3123V20.0234Z" fill="black"/>
</svg>
