<svg width="150" height="150" viewBox="0 0 150 150" fill="none" xmlns="http://www.w3.org/2000/svg">
<path d="M3.92411 55.84C3.92411 51.37 3.92411 46.89 3.92411 42.1C5.69411 41.88 7.09411 41.71 8.84411 41.49C8.84411 38.78 8.84411 36.17 8.84411 33.28C10.5441 32.99 11.9441 32.75 12.6941 32.62C14.9141 29.43 16.8341 26.68 19.1941 23.29C21.3741 21.82 24.2941 19.85 27.0941 17.97C28.0441 16.58 28.9941 15.17 29.9741 13.78C30.9441 12.4 31.9241 11.03 33.4241 8.92C35.3141 8.92 38.2641 8.92 41.0541 8.92C44.0741 0.769999 51.1041 7.15 55.8541 3.76C55.9241 3.01 56.0641 1.6 56.2241 0C68.4141 0 80.3541 0 92.6241 0C92.8541 1.39 93.0841 2.78 93.3741 4.56C97.5841 4.56 101.864 4.56 106.364 4.56C107.204 12.13 113.204 7.13 115.454 8.63C117.934 12.19 119.844 14.93 122.084 18.13C124.444 19.74 127.344 21.73 130.904 24.16C130.944 24.54 131.074 25.83 131.244 27.41C132.644 27.62 134.064 27.84 134.654 27.93C136.214 30.23 137.454 32.05 138.694 33.87C139.134 33.68 139.574 33.48 140.004 33.29C140.004 35.9 140.004 38.52 140.004 41.43C141.714 41.66 143.124 41.84 144.884 42.07C144.884 46.43 144.884 50.7 144.884 55.27C146.594 55.56 147.994 55.79 149.714 56.08C149.714 66.61 149.714 77.21 149.714 88.25C148.484 88.52 146.974 88.86 145.114 89.28C145.114 95.19 145.114 101.14 145.114 107.38C143.394 107.64 141.994 107.85 140.234 108.12C140.234 110.72 140.234 113.33 140.234 114.47C137.904 117.14 136.454 118.81 134.994 120.48C135.124 120.58 135.244 120.68 135.374 120.78C132.634 122.69 129.884 124.61 126.244 127.15C126.204 127.37 125.974 128.78 125.694 130.5C124.344 130.67 122.924 130.85 122.704 130.88C120.114 134.26 118.164 136.81 115.924 139.73C113.524 139.73 110.704 139.73 107.604 139.73C107.264 141.39 106.954 142.91 106.574 144.77C102.194 144.77 97.9241 144.77 93.3041 144.77C93.1241 146.5 92.9741 147.91 92.8041 149.54C80.6841 149.54 68.7441 149.54 56.4441 149.54C56.2241 148.22 55.9941 146.82 55.7041 145.04C51.5041 145.04 47.2341 145.04 42.6641 145.04C42.2641 143.23 41.9341 141.72 41.5341 139.86C38.5741 139.86 35.6241 139.86 33.2641 139.86C30.8841 136.75 28.9341 134.2 26.3741 130.87C26.2141 130.85 24.9341 130.73 23.3541 130.57C23.1441 129.14 22.9441 127.73 22.7441 126.31C22.4241 126.61 22.0941 126.9 21.7741 127.2C18.7541 124.21 15.7441 121.21 12.7241 118.22C13.0341 117.82 13.3441 117.42 13.6641 117.02C12.2541 116.88 10.8341 116.73 9.09411 116.55C9.09411 113.7 9.09411 111.08 9.09411 108.2C7.38411 107.93 5.97411 107.71 4.20411 107.44C4.20411 103.19 4.20411 98.91 4.20411 94.63C3.84411 94.79 3.48411 94.94 3.12411 95.1C2.09411 93.67 0.194101 92.25 0.164101 90.8C-0.0858989 79.33 0.0241017 67.86 0.0241017 56C1.5541 55.89 2.82411 55.79 4.08411 55.7C4.08411 57.28 4.08411 58.86 4.08411 60.76C6.00411 60.65 7.38411 60.58 9.06411 60.49C8.92411 58.74 8.82411 57.36 8.70411 55.84C6.85411 55.84 5.39411 55.84 3.92411 55.84ZM51.3541 42C51.3541 63.85 51.3541 85.71 51.3541 107.53C52.9741 107.53 54.2541 107.53 55.8141 107.53C55.9541 105.94 56.0841 104.52 56.2341 102.79C59.1741 102.79 61.7841 102.79 64.5441 102.79C64.9041 100.95 65.1941 99.43 65.5241 97.75C68.6241 97.75 71.4341 97.75 74.4141 97.75C74.9841 90.97 80.5541 95.09 83.6341 93.26C83.9341 91.86 84.2541 90.35 84.6341 88.53C87.5141 88.53 90.1241 88.53 92.6541 88.53C92.9541 86.75 93.1941 85.35 93.4841 83.65C96.7041 83.65 99.6541 83.65 102.594 83.65C103.214 76.48 109.284 81.68 111.774 79.12C111.774 77.82 111.774 76.53 111.774 74.98C110.174 74.83 108.764 74.69 107.314 74.56C107.074 72.84 106.884 71.44 106.644 69.72C103.734 69.72 101.114 69.72 98.4841 69.72C98.0841 67.87 97.7641 66.35 97.5041 65.17C94.0441 63.83 89.0241 67.25 88.3741 60.66C85.3141 60.66 82.3741 60.66 79.2541 60.66C79.0641 58.91 78.9141 57.5 78.7241 55.77C75.8041 55.77 73.1941 55.77 70.4641 55.77C70.0941 53.92 69.7841 52.4 69.4441 50.73C66.6841 50.73 64.2041 50.73 61.7241 50.73C61.9041 50.42 62.0941 50.12 62.2741 49.81C60.5241 48.44 58.7841 47.08 56.0741 44.95C56.0741 45 55.9541 43.58 55.8141 41.99C54.2141 42 52.9241 42 51.3541 42ZM75.0141 13.56C74.8941 11.77 74.8041 10.38 74.7141 8.99C73.0641 8.99 71.7941 8.99 70.2841 8.99C70.2841 10.58 70.2841 11.97 70.2841 13.56C71.7841 13.56 73.0641 13.56 75.0141 13.56ZM37.1841 18.56C38.9641 18.56 40.2341 18.56 41.7441 18.56C41.7441 16.97 41.7441 15.58 41.7441 14.09C40.1041 14.09 38.7241 14.09 37.1841 14.09C37.1841 15.65 37.1841 16.92 37.1841 18.56ZM51.2741 18.48C52.9041 18.48 54.2941 18.48 56.0041 18.48C55.8941 16.78 55.8041 15.39 55.6941 13.71C53.9141 13.88 52.5241 14.01 51.2741 14.13C51.2741 15.82 51.2741 17.09 51.2741 18.48ZM83.8041 12.95C81.6841 13.94 80.1141 14.29 79.1941 15.26C78.6741 15.81 79.2141 17.37 79.2941 18.77C81.0241 18.66 82.4041 18.57 83.8041 18.48C83.8041 16.83 83.8041 15.56 83.8041 12.95ZM102.714 18.52C102.714 16.89 102.714 15.5 102.714 13.79C101.014 13.9 99.6241 13.99 97.9441 14.1C98.1141 15.88 98.2441 17.27 98.3641 18.52C100.054 18.52 101.324 18.52 102.714 18.52ZM47.0141 27.56C46.8941 25.77 46.8041 24.38 46.7141 22.99C45.0641 22.99 43.7941 22.99 42.2841 22.99C42.2841 24.58 42.2841 25.97 42.2841 27.56C43.7841 27.56 45.0641 27.56 47.0141 27.56ZM97.8041 21.95C95.7141 22.93 94.1341 23.28 93.1941 24.26C92.6741 24.8 93.2141 26.37 93.2941 27.77C95.0241 27.66 96.4041 27.57 97.8041 27.48C97.8041 25.83 97.8041 24.56 97.8041 21.95ZM116.794 27.61C116.794 25.83 116.794 24.56 116.794 23.05C115.204 23.05 113.814 23.05 112.324 23.05C112.324 24.69 112.324 26.08 112.324 27.61C113.884 27.61 115.154 27.61 116.794 27.61ZM36.7141 32.52C36.7141 30.89 36.7141 29.5 36.7141 27.79C35.0141 27.9 33.6241 27.99 31.9441 28.1C32.1141 29.88 32.2441 31.27 32.3641 32.52C34.0541 32.52 35.3241 32.52 36.7141 32.52ZM51.3141 28.04C51.3141 29.67 51.3141 31.06 51.3141 32.77C53.0141 32.66 54.4041 32.57 56.0841 32.46C55.9141 30.68 55.7841 29.29 55.6641 28.04C53.9741 28.04 52.7041 28.04 51.3141 28.04ZM37.8441 41.57C36.8641 39.48 36.5141 37.9 35.5341 36.96C34.9941 36.44 33.4241 36.98 32.0241 37.06C32.1341 38.79 32.2241 40.18 32.3141 41.57C33.9641 41.57 35.2341 41.57 37.8441 41.57ZM70.2741 41.48C71.9041 41.48 73.2941 41.48 75.0041 41.48C74.8941 39.78 74.8041 38.39 74.6941 36.71C72.9141 36.88 71.5241 37.01 70.2741 37.13C70.2741 38.82 70.2741 40.09 70.2741 41.48ZM102.714 41.52C102.714 39.89 102.714 38.5 102.714 36.79C101.014 36.9 99.6241 36.99 97.9441 37.1C98.1141 38.88 98.2441 40.27 98.3641 41.52C100.054 41.52 101.324 41.52 102.714 41.52ZM27.7941 41.78C26.0041 41.9 24.6141 41.99 23.2241 42.08C23.2241 43.73 23.2241 45 23.2241 46.51C24.8141 46.51 26.2041 46.51 27.7941 46.51C27.7941 45.01 27.7941 43.73 27.7941 41.78ZM42.2341 46.78C44.0241 46.66 45.4141 46.57 46.8041 46.48C46.8041 44.83 46.8041 43.56 46.8041 42.05C45.2141 42.05 43.8241 42.05 42.2341 42.05C42.2341 43.55 42.2341 44.83 42.2341 46.78ZM36.8441 56C35.0641 56 33.7941 56 32.2841 56C32.2841 57.59 32.2841 58.98 32.2841 60.47C33.9241 60.47 35.3041 60.47 36.8441 60.47C36.8441 58.91 36.8441 57.64 36.8441 56ZM8.79411 65.04C7.20411 65.04 5.8141 65.04 4.3241 65.04C4.3241 66.67 4.3241 68.06 4.3241 69.77C6.0241 69.66 7.41411 69.56 8.79411 69.47C8.79411 67.82 8.79411 66.55 8.79411 65.04ZM22.8041 63.95C20.6841 64.94 19.1141 65.29 18.1941 66.26C17.6741 66.81 18.2141 68.37 18.2941 69.77C20.0241 69.66 21.4041 69.57 22.8041 69.48C22.8041 67.83 22.8041 66.56 22.8041 63.95ZM46.7941 69.78C45.0041 69.9 43.6141 69.99 42.2241 70.08C42.2241 71.73 42.2241 73 42.2241 74.51C43.8141 74.51 45.2041 74.51 46.7941 74.51C46.7941 73.01 46.7941 71.73 46.7941 69.78ZM8.79411 74.78C7.00411 74.9 5.61411 74.99 4.22411 75.08C4.22411 76.73 4.22411 78 4.22411 79.51C5.81411 79.51 7.20411 79.51 8.79411 79.51C8.79411 78.01 8.79411 76.73 8.79411 74.78ZM22.7541 84.08C21.1241 84.08 19.7341 84.08 18.0241 84.08C18.1341 85.78 18.2241 87.17 18.3341 88.85C20.1141 88.68 21.5041 88.55 22.7541 88.43C22.7541 86.74 22.7541 85.47 22.7541 84.08ZM41.7541 89.08C40.1241 89.08 38.7341 89.08 37.0241 89.08C37.1341 90.78 37.2241 92.17 37.3341 93.85C39.1141 93.68 40.5041 93.55 41.7541 93.43C41.7541 91.73 41.7541 90.46 41.7541 89.08Z" fill="black"/>
</svg>
